<?xml version="1.0" encoding="UTF-8" standalone="no"?>
<!-- Created with Inkscape (http://www.inkscape.org/) -->

<svg
   width="47.367142mm"
   height="76.368301mm"
   viewBox="0 0 47.367142 76.368301"
   version="1.1"
   id="svg1"
   xmlns="http://www.w3.org/2000/svg"
   xmlns:svg="http://www.w3.org/2000/svg">
  <defs
     id="defs1">
    <rect
       x="395.73575"
       y="218.7962"
       width="194.06271"
       height="230.21165"
       id="rect5" />
  </defs>
  <g
     id="layer1"
     transform="translate(-102.55075,-7.3225511)">
    <path
       id="rect1"
       style="fill:#c6b9cd;fill-opacity:1;stroke-width:0.225313;stroke-dasharray:none"
       d="m 107.33081,22.562447 c -2.64821,0 -4.78007,2.131859 -4.78007,4.78007 v 18.541504 c 0,2.648211 2.13186,4.78007 4.78007,4.78007 h 37.807 c 2.64821,0 4.78007,-2.131859 4.78007,-4.78007 V 27.342517 c 0,-2.648211 -2.13186,-4.78007 -4.78007,-4.78007 z m 8.04809,10.844299 a 3.084903,3.084903 0 0 1 3.08508,3.085083 3.084903,3.084903 0 0 1 -3.08508,3.085083 3.084903,3.084903 0 0 1 -3.08508,-3.085083 3.084903,3.084903 0 0 1 3.08508,-3.085083 z m 22.09116,0 a 3.084903,3.084903 0 0 1 3.08508,3.085083 3.084903,3.084903 0 0 1 -3.08508,3.085083 3.084903,3.084903 0 0 1 -3.08509,-3.085083 3.084903,3.084903 0 0 1 3.08509,-3.085083 z" />
    <path
       id="rect2"
       style="fill:#0f5257;fill-opacity:1;stroke-width:0.2287;stroke-dasharray:none"
       d="m 115.67498,18.050578 -11.24272,2.31252 v 15.881201 h 8.14162 a 3.084903,3.084903 0 0 1 3.07475,-2.837553 3.084903,3.084903 0 0 1 0.0264,5.17e-4 z" />
    <path
       id="rect2-1"
       style="fill:#0b3142;fill-opacity:1;stroke-width:0.2287;stroke-dasharray:none"
       d="m 115.5762,33.377084 c 1.59394,0.01038 2.91751,1.233375 3.05356,2.821534 h 8.18865 V 20.349973 L 115.6532,18.052955 Z" />
    <path
       id="rect2-6"
       style="fill:#0f5257;fill-opacity:1;stroke-width:0.293828;stroke-dasharray:none"
       d="m 137.76058,7.3225505 -11.24272,3.8178545 v 26.213387 h 8.19691 a 3.084903,3.084903 0 0 1 -0.12299,-0.861963 3.084903,3.084903 0 0 1 3.08509,-3.085083 3.084903,3.084903 0 0 1 0.0837,0.0016 z" />
    <path
       id="rect2-1-8"
       style="fill:#0b3142;fill-opacity:1;stroke-width:0.293828;stroke-dasharray:none"
       d="m 137.58695,33.408297 c 0.03,-9.54e-4 0.0599,-0.0015 0.0899,-0.0016 1.70388,-9.8e-5 3.08518,1.381199 3.08508,3.085083 -9e-5,0.282695 -0.039,0.564037 -0.11575,0.836125 h 8.18296 V 11.167277 L 137.66395,7.3757772 Z" />
    <path
       d="m 135.19692,34.657833 a 3.084903,3.084903 0 0 0 -0.59997,1.663981 h 0.0672 a 2.7413358,3.084903 0 0 1 0.53279,-1.663981 z"
       style="fill:#9c92a3;stroke-width:0.298435"
       id="path28" />
    <path
       d="m 115.65547,22.562447 -0.66352,2.78691 a 11.158475,11.158475 0 0 1 0.59376,-0.01602 11.158475,11.158475 0 0 1 11.04532,9.57616 11.158475,11.158475 0 0 1 11.04584,-9.57616 11.158475,11.158475 0 0 1 0.60668,0.01654 l -0.66353,-2.787427 z"
       style="fill:#9c92a3;stroke-width:0.298435"
       id="path22" />
    <path
       d="m 137.53682,33.410364 a 2.7413358,3.084903 0 0 0 -0.13487,-0.0036 2.7413358,3.084903 0 0 0 -2.20503,1.251087 3.084903,3.084903 0 0 1 2.3399,-1.247469 z"
       style="fill:#0b3142;stroke-width:0.262977"
       id="path27" />
    <path
       d="m 138.28355,25.349874 a 11.158475,11.158475 0 0 0 -0.60668,-0.01654 11.158475,11.158475 0 0 0 -11.04584,9.57616 11.158475,11.158475 0 0 1 0.11162,1.412317 h 7.8543 a 3.084903,3.084903 0 0 1 0.59997,-1.663981 2.7413358,3.084903 0 0 1 2.20503,-1.251087 2.7413358,3.084903 0 0 1 0.13487,0.0036 3.084903,3.084903 0 0 1 0.14005,-0.0031 3.084903,3.084903 0 0 1 3.08043,2.914551 h 0.13901 z"
       style="fill:#0b3142;stroke-width:0.262977"
       id="path24" />
    <path
       d="m 138.28355,25.349874 2.61276,10.97194 h -0.13901 a 3.084903,3.084903 0 0 1 0.005,0.170015 3.084903,3.084903 0 0 1 -3.08508,3.085083 3.084903,3.084903 0 0 1 -3.08457,-3.085083 3.084903,3.084903 0 0 1 0.005,-0.170015 h -7.8543 a 11.158475,11.158475 0 0 0 -0.11162,-1.412317 11.158475,11.158475 0 0 0 -0.11265,1.582332 11.158475,11.158475 0 0 0 11.15849,11.158492 11.158475,11.158475 0 0 0 11.15849,-11.158492 11.158475,11.158475 0 0 0 -10.55181,-11.141955 z"
       style="fill:#0b3142;stroke-width:0.262977"
       id="path23" />
    <path
       d="m 126.74265,36.321814 a 11.158475,11.158475 0 0 0 -11.15694,-10.988477 11.158475,11.158475 0 0 0 -0.59376,0.01602 l -0.87282,3.665409 v 4.7625 a 3.084903,3.084903 0 0 1 1.46658,-0.37052 3.084903,3.084903 0 0 1 1.15703,0.22531 2.7413358,3.084903 0 0 1 1.02837,-0.22531 2.7413358,3.084903 0 0 1 2.7373,2.915068 z"
       style="fill:#0b3142;stroke-width:0.262977"
       id="path19" />
    <path
       d="m 126.74265,36.321814 h -6.23424 a 2.7413358,3.084903 0 0 0 -2.7373,-2.915068 2.7413358,3.084903 0 0 0 -1.02837,0.22531 3.084903,3.084903 0 0 1 1.92805,2.859773 3.084903,3.084903 0 0 1 -3.08508,3.084567 3.084903,3.084903 0 0 1 -3.08508,-3.084567 3.084903,3.084903 0 0 1 1.6185,-2.714563 v -4.7625 l 0.87282,-3.665409 a 11.158475,11.158475 0 0 0 -10.56473,11.142472 11.158475,11.158475 0 0 0 11.15849,11.158492 11.158475,11.158475 0 0 0 11.15849,-11.158492 11.158475,11.158475 0 0 0 -0.002,-0.170015 z"
       style="fill:#0b3142;stroke-width:0.262977"
       id="path18" />
    <text
       xml:space="preserve"
       transform="matrix(0.34402415,0,0,0.33538338,-32.688922,-19.616548)"
       id="text5"
       style="font-style:normal;font-variant:normal;font-weight:normal;font-stretch:normal;font-size:64px;line-height:0;font-family:Ultraprint;-inkscape-font-specification:Ultraprint;text-align:start;writing-mode:lr-tb;direction:ltr;white-space:pre;shape-inside:url(#rect5);fill:#9c92a3;fill-opacity:1;stroke-width:0.986457;stroke-dasharray:none"
       x="225.6787"
       y="0"><tspan
         x="395.73633"
         y="259.45191"
         id="tspan2"><tspan
           style="letter-spacing:0px"
           id="tspan1">TAPE </tspan></tspan><tspan
         x="395.73633"
         y="304.2519"
         id="tspan5"><tspan
           style="letter-spacing:-1.31639px"
           id="tspan3">TOWN</tspan></tspan></text>
  </g>
</svg>
